<svg width="377" height="189" viewBox="0 0 377 189" fill="none" xmlns="http://www.w3.org/2000/svg">
<rect x="0.82959" y="0.160889" width="50" height="151" fill="#1C1719"/>
<rect x="65.8296" y="38" width="50" height="151" fill="#F7D92A"/>
<path d="M168.791 92.3856V20.1127H180.148V49.5381H192.332V20.1127H203.689V92.3856H192.332V59.8628H180.148V92.3856H168.791Z" fill="#1C1719"/>
<path d="M208.12 92.3856L219.891 20.1127H235.274L247.045 92.3856H235.687L233.622 78.0343V78.2408H220.717L218.652 92.3856H208.12ZM222.059 68.4323H232.28L227.221 32.7088H227.015L222.059 68.4323Z" fill="#1C1719"/>
<path d="M251.522 92.3856V20.1127H267.732L274.959 71.8395H275.166L282.393 20.1127H298.603V92.3856H287.865V37.6647H287.659L279.399 92.3856H269.9L261.64 37.6647H261.434V92.3856H251.522Z" fill="#1C1719"/>
<path d="M316.473 92.3856V61.618L302.741 20.1127H314.821L322.565 46.6472H322.771L330.515 20.1127H341.562L327.831 61.618V92.3856H316.473Z" fill="#1C1719"/>
<path d="M358.797 93.4181C347.647 93.4181 342.071 86.8103 342.071 75.2466V71.1167H352.809V76.0726C352.809 81.235 355.081 83.0934 358.694 83.0934C362.308 83.0934 364.579 81.235 364.579 75.8661C364.579 69.8778 362.308 66.0576 354.874 59.5531C345.375 51.19 342.278 45.305 342.278 37.0452C342.278 25.688 348.163 19.0802 359.21 19.0802C370.258 19.0802 375.73 25.688 375.73 37.2517V40.2459H364.992V36.529C364.992 31.3666 362.927 29.4049 359.314 29.4049C355.7 29.4049 353.635 31.3666 353.635 36.3225C353.635 41.5881 356.01 45.4082 363.444 51.9128C372.942 60.2758 375.936 66.0576 375.936 75.0401C375.936 86.8103 369.948 93.4181 358.797 93.4181Z" fill="#1C1719"/>
<path d="M183.556 170.081C172.405 170.081 166.83 163.473 166.83 151.909V147.779H177.567V152.735C177.567 157.897 179.839 159.756 183.452 159.756C187.066 159.756 189.337 157.897 189.337 152.529C189.337 146.54 187.066 142.72 179.632 136.216C170.133 127.853 167.036 121.967 167.036 113.708C167.036 102.351 172.921 95.7427 183.969 95.7427C195.016 95.7427 200.488 102.351 200.488 113.914V116.908H189.75V113.191C189.75 108.029 187.686 106.067 184.072 106.067C180.458 106.067 178.393 108.029 178.393 112.985C178.393 118.251 180.768 122.071 188.202 128.575C197.7 136.938 200.695 142.72 200.695 151.703C200.695 163.473 194.706 170.081 183.556 170.081Z" fill="#1C1719"/>
<path d="M215.053 169.048V107.1H203.18V96.7752H238.284V107.1H226.41V169.048H215.053Z" fill="#1C1719"/>
<path d="M259.27 170.081C248.119 170.081 242.337 163.473 242.337 151.909V96.7752H253.694V152.735C253.694 157.897 255.862 159.756 259.476 159.756C263.09 159.756 265.258 157.897 265.258 152.735V96.7752H276.202V151.909C276.202 163.473 270.42 170.081 259.27 170.081Z" fill="#1C1719"/>
<path d="M283.258 169.048V96.7752H300.604C311.961 96.7752 317.536 103.073 317.536 114.637V151.186C317.536 162.75 311.961 169.048 300.604 169.048H283.258ZM294.616 158.723H300.397C304.011 158.723 306.179 156.865 306.179 151.703V114.121C306.179 108.958 304.011 107.1 300.397 107.1H294.616V158.723Z" fill="#1C1719"/>
<path d="M324.17 169.048V96.7752H335.527V169.048H324.17Z" fill="#1C1719"/>
<path d="M359.417 170.081C348.266 170.081 342.175 163.473 342.175 151.909V113.914C342.175 102.351 348.266 95.7427 359.417 95.7427C370.568 95.7427 376.659 102.351 376.659 113.914V151.909C376.659 163.473 370.568 170.081 359.417 170.081ZM359.417 159.756C363.031 159.756 365.302 157.794 365.302 152.632V113.191C365.302 108.029 363.031 106.067 359.417 106.067C355.803 106.067 353.532 108.029 353.532 113.191V152.632C353.532 157.794 355.803 159.756 359.417 159.756Z" fill="#1C1719"/>
</svg>
