<svg width="106" height="58" viewBox="0 0 106 58" fill="none" xmlns="http://www.w3.org/2000/svg">
<path d="M0 1.5357C0 0.687556 0.687556 0 1.5357 0H13.8213C14.6694 0 15.357 0.687556 15.357 1.5357V44.8424C15.357 45.6905 14.6694 46.3781 13.8213 46.3781H1.5357C0.687556 46.3781 0 45.6905 0 44.8424V1.5357Z" fill="#1C1719"/>
<path d="M19.9641 13.1576C19.9641 12.3095 20.6516 11.6219 21.4998 11.6219H33.7854C34.6335 11.6219 35.3211 12.3095 35.3211 13.1576V56.4643C35.3211 57.3124 34.6335 58 33.7854 58H21.4998C20.6516 58 19.9641 57.3124 19.9641 56.4643V13.1576Z" fill="#F7D92A"/>
<path d="M50.8395 26.8685V7.77478H53.84V15.5486H57.0586V7.77478H60.0591V26.8685H57.0586V18.2763H53.84V26.8685H50.8395Z" fill="#1C1719"/>
<path d="M61.2298 26.8685L64.3394 7.77478H68.4036L71.5132 26.8685H68.5127L67.9672 23.077V23.1316H64.5576L64.0121 26.8685H61.2298ZM64.9122 20.5403H67.6126L66.276 11.1025H66.2215L64.9122 20.5403Z" fill="#1C1719"/>
<path d="M72.6961 26.8685V7.77478H76.9785L78.8879 21.4404H78.9425L80.8518 7.77478H85.1343V26.8685H82.2975V12.4118H82.2429L80.0608 26.8685H77.5513L75.3692 12.4118H75.3147V26.8685H72.6961Z" fill="#1C1719"/>
<path d="M89.8555 26.8685V18.74L86.2277 7.77478H89.4191L91.4648 14.7849H91.5194L93.5651 7.77478H96.4837L92.8559 18.74V26.8685H89.8555Z" fill="#1C1719"/>
<path d="M101.037 27.1413C98.0912 27.1413 96.6182 25.3956 96.6182 22.3406V21.2495H99.455V22.5588C99.455 23.9226 100.055 24.4136 101.01 24.4136C101.964 24.4136 102.565 23.9226 102.565 22.5042C102.565 20.9222 101.964 19.9129 100.001 18.1945C97.4911 15.9851 96.6728 14.4303 96.6728 12.2482C96.6728 9.24773 98.2275 7.50201 101.146 7.50201C104.065 7.50201 105.51 9.24772 105.51 12.3027V13.0937H102.674V12.1118C102.674 10.7479 102.128 10.2297 101.173 10.2297C100.219 10.2297 99.6732 10.7479 99.6732 12.0572C99.6732 13.4483 100.301 14.4576 102.264 16.176C104.774 18.3854 105.565 19.9129 105.565 22.286C105.565 25.3956 103.983 27.1413 101.037 27.1413Z" fill="#1C1719"/>
<path d="M54.7401 50.498C51.7942 50.498 50.3213 48.7523 50.3213 45.6973V44.6062H53.1581V45.9155C53.1581 47.2793 53.7582 47.7703 54.7128 47.7703C55.6675 47.7703 56.2676 47.2793 56.2676 45.8609C56.2676 44.2789 55.6675 43.2696 53.7036 41.5512C51.1941 39.3418 50.3758 37.787 50.3758 35.6049C50.3758 32.6044 51.9306 30.8587 54.8492 30.8587C57.7678 30.8587 59.2135 32.6044 59.2135 35.6594V36.4505H56.3767V35.4685C56.3767 34.1047 55.8312 33.5864 54.8765 33.5864C53.9218 33.5864 53.3763 34.1047 53.3763 35.4139C53.3763 36.8051 54.0036 37.8143 55.9676 39.5327C58.477 41.7422 59.2681 43.2696 59.2681 45.6427C59.2681 48.7523 57.686 50.498 54.7401 50.498Z" fill="#1C1719"/>
<path d="M63.0614 50.2252V33.8592H59.9246V31.1315H69.1987V33.8592H66.0619V50.2252H63.0614Z" fill="#1C1719"/>
<path d="M74.7429 50.498C71.797 50.498 70.2695 48.7523 70.2695 45.6973V31.1315H73.27V45.9155C73.27 47.2793 73.8428 47.7703 74.7975 47.7703C75.7522 47.7703 76.325 47.2793 76.325 45.9155V31.1315H79.2163V45.6973C79.2163 48.7523 77.6888 50.498 74.7429 50.498Z" fill="#1C1719"/>
<path d="M81.0805 50.2252V31.1315H85.663C88.6634 31.1315 90.1364 32.7954 90.1364 35.8504V45.5063C90.1364 48.5613 88.6634 50.2252 85.663 50.2252H81.0805ZM84.0809 47.4975H85.6084C86.5631 47.4975 87.1359 47.0066 87.1359 45.6427V35.714C87.1359 34.3502 86.5631 33.8592 85.6084 33.8592H84.0809V47.4975Z" fill="#1C1719"/>
<path d="M91.8889 50.2252V31.1315H94.8893V50.2252H91.8889Z" fill="#1C1719"/>
<path d="M101.201 50.498C98.2548 50.498 96.6455 48.7523 96.6455 45.6973V35.6594C96.6455 32.6044 98.2548 30.8587 101.201 30.8587C104.147 30.8587 105.756 32.6044 105.756 35.6594V45.6973C105.756 48.7523 104.147 50.498 101.201 50.498ZM101.201 47.7703C102.155 47.7703 102.755 47.252 102.755 45.8882V35.4685C102.755 34.1047 102.155 33.5864 101.201 33.5864C100.246 33.5864 99.6459 34.1047 99.6459 35.4685V45.8882C99.6459 47.252 100.246 47.7703 101.201 47.7703Z" fill="#1C1719"/>
</svg>
