<svg width="106" height="59" viewBox="0 0 106 59" fill="none" xmlns="http://www.w3.org/2000/svg">
<path d="M0 1.58735C0 0.739207 0.687556 0.051651 1.5357 0.051651H13.8213C14.6694 0.051651 15.357 0.739207 15.357 1.58735V44.8941C15.357 45.7422 14.6694 46.4298 13.8213 46.4298H1.5357C0.687556 46.4298 0 45.7422 0 44.8941V1.58735Z" fill="white"/>
<path d="M19.9641 13.2092C19.9641 12.3611 20.6516 11.6735 21.4998 11.6735H33.7854C34.6335 11.6735 35.3211 12.3611 35.3211 13.2092V56.516C35.3211 57.3641 34.6335 58.0516 33.7854 58.0516H21.4998C20.6516 58.0516 19.9641 57.3641 19.9641 56.516V13.2092Z" fill="white"/>
<path d="M50.8395 26.9201V7.82643H53.84V15.6003H57.0586V7.82643H60.0591V26.9201H57.0586V18.328H53.84V26.9201H50.8395Z" fill="white"/>
<path d="M61.2298 26.9201L64.3394 7.82643H68.4036L71.5132 26.9201H68.5127L67.9672 23.1287V23.1832H64.5576L64.0121 26.9201H61.2298ZM64.9122 20.5919H67.6126L66.276 11.1542H66.2215L64.9122 20.5919Z" fill="white"/>
<path d="M72.6961 26.9201V7.82643H76.9785L78.8879 21.4921H78.9425L80.8518 7.82643H85.1343V26.9201H82.2975V12.4635H82.2429L80.0608 26.9201H77.5513L75.3692 12.4635H75.3147V26.9201H72.6961Z" fill="white"/>
<path d="M89.8555 26.9201V18.7917L86.2277 7.82643H89.4191L91.4648 14.8366H91.5194L93.5651 7.82643H96.4837L92.8559 18.7917V26.9201H89.8555Z" fill="white"/>
<path d="M101.037 27.1929C98.0912 27.1929 96.6182 25.4472 96.6182 22.3922V21.3011H99.455V22.6104C99.455 23.9743 100.055 24.4652 101.01 24.4652C101.964 24.4652 102.565 23.9743 102.565 22.5559C102.565 20.9738 101.964 19.9646 100.001 18.2461C97.4911 16.0367 96.6728 14.482 96.6728 12.2998C96.6728 9.29938 98.2275 7.55367 101.146 7.55367C104.065 7.55367 105.51 9.29938 105.51 12.3544V13.1454H102.674V12.1634C102.674 10.7996 102.128 10.2813 101.173 10.2813C100.219 10.2813 99.6732 10.7996 99.6732 12.1089C99.6732 13.5 100.301 14.5092 102.264 16.2277C104.774 18.4371 105.565 19.9646 105.565 22.3377C105.565 25.4472 103.983 27.1929 101.037 27.1929Z" fill="white"/>
<path d="M54.7401 50.5496C51.7942 50.5496 50.3213 48.8039 50.3213 45.7489V44.6579H53.1581V45.9671C53.1581 47.331 53.7582 47.822 54.7128 47.822C55.6675 47.822 56.2676 47.331 56.2676 45.9126C56.2676 44.3305 55.6675 43.3213 53.7036 41.6029C51.1941 39.3934 50.3758 37.8387 50.3758 35.6565C50.3758 32.6561 51.9306 30.9104 54.8492 30.9104C57.7678 30.9104 59.2135 32.6561 59.2135 35.7111V36.5021H56.3767V35.5202C56.3767 34.1563 55.8312 33.6381 54.8765 33.6381C53.9218 33.6381 53.3763 34.1563 53.3763 35.4656C53.3763 36.8567 54.0036 37.866 55.9676 39.5844C58.477 41.7938 59.2681 43.3213 59.2681 45.6944C59.2681 48.8039 57.686 50.5496 54.7401 50.5496Z" fill="white"/>
<path d="M63.0614 50.2769V33.9108H59.9246V31.1832H69.1987V33.9108H66.0619V50.2769H63.0614Z" fill="white"/>
<path d="M74.7429 50.5496C71.797 50.5496 70.2695 48.8039 70.2695 45.7489V31.1832H73.27V45.9671C73.27 47.331 73.8428 47.822 74.7975 47.822C75.7522 47.822 76.325 47.331 76.325 45.9671V31.1832H79.2163V45.7489C79.2163 48.8039 77.6888 50.5496 74.7429 50.5496Z" fill="white"/>
<path d="M81.0805 50.2769V31.1832H85.663C88.6634 31.1832 90.1364 32.847 90.1364 35.902V45.558C90.1364 48.613 88.6634 50.2769 85.663 50.2769H81.0805ZM84.0809 47.5492H85.6084C86.5631 47.5492 87.1359 47.0582 87.1359 45.6944V35.7656C87.1359 34.4018 86.5631 33.9108 85.6084 33.9108H84.0809V47.5492Z" fill="white"/>
<path d="M91.8889 50.2769V31.1832H94.8893V50.2769H91.8889Z" fill="white"/>
<path d="M101.201 50.5496C98.2548 50.5496 96.6455 48.8039 96.6455 45.7489V35.7111C96.6455 32.6561 98.2548 30.9104 101.201 30.9104C104.147 30.9104 105.756 32.6561 105.756 35.7111V45.7489C105.756 48.8039 104.147 50.5496 101.201 50.5496ZM101.201 47.822C102.155 47.822 102.755 47.3037 102.755 45.9399V35.5202C102.755 34.1563 102.155 33.6381 101.201 33.6381C100.246 33.6381 99.6459 34.1563 99.6459 35.5202V45.9399C99.6459 47.3037 100.246 47.822 101.201 47.822Z" fill="white"/>
</svg>
