<svg width="377" height="189" viewBox="0 0 377 189" fill="none" xmlns="http://www.w3.org/2000/svg">
<rect x="0.82959" width="50" height="151" fill="white"/>
<rect x="65.8296" y="37.8391" width="50" height="151" fill="white"/>
<path d="M168.791 92.2248V19.9518H180.148V49.3772H192.332V19.9518H203.689V92.2248H192.332V59.7019H180.148V92.2248H168.791Z" fill="white"/>
<path d="M208.12 92.2248L219.891 19.9518H235.274L247.045 92.2248H235.687L233.622 77.8734V78.0799H220.717L218.652 92.2248H208.12ZM222.059 68.2715H232.28L227.221 32.548H227.015L222.059 68.2715Z" fill="white"/>
<path d="M251.522 92.2248V19.9518H267.732L274.959 71.6786H275.166L282.393 19.9518H298.603V92.2248H287.865V37.5038H287.659L279.399 92.2248H269.9L261.64 37.5038H261.434V92.2248H251.522Z" fill="white"/>
<path d="M316.473 92.2248V61.4571L302.741 19.9518H314.821L322.565 46.4863H322.771L330.515 19.9518H341.562L327.831 61.4571V92.2248H316.473Z" fill="white"/>
<path d="M358.797 93.2573C347.647 93.2573 342.071 86.6494 342.071 75.0858V70.9559H352.809V75.9117C352.809 81.0741 355.081 82.9325 358.694 82.9325C362.308 82.9325 364.579 81.0741 364.579 75.7052C364.579 69.7169 362.308 65.8968 354.874 59.3922C345.375 51.0292 342.278 45.1441 342.278 36.8843C342.278 25.5272 348.163 18.9193 359.21 18.9193C370.258 18.9193 375.73 25.5272 375.73 37.0908V40.085H364.992V36.3681C364.992 31.2057 362.927 29.2441 359.314 29.2441C355.7 29.2441 353.635 31.2057 353.635 36.1616C353.635 41.4272 356.01 45.2474 363.444 51.7519C372.942 60.1149 375.936 65.8968 375.936 74.8793C375.936 86.6494 369.948 93.2573 358.797 93.2573Z" fill="white"/>
<path d="M183.556 169.92C172.405 169.92 166.83 163.312 166.83 151.748V147.618H177.567V152.574C177.567 157.737 179.839 159.595 183.452 159.595C187.066 159.595 189.337 157.737 189.337 152.368C189.337 146.379 187.066 142.559 179.632 136.055C170.133 127.692 167.036 121.807 167.036 113.547C167.036 102.19 172.921 95.5819 183.969 95.5819C195.016 95.5819 200.488 102.19 200.488 113.753V116.748H189.75V113.031C189.75 107.868 187.686 105.907 184.072 105.907C180.458 105.907 178.393 107.868 178.393 112.824C178.393 118.09 180.768 121.91 188.202 128.414C197.7 136.777 200.695 142.559 200.695 151.542C200.695 163.312 194.706 169.92 183.556 169.92Z" fill="white"/>
<path d="M215.053 168.887V106.939H203.18V96.6143H238.284V106.939H226.41V168.887H215.053Z" fill="white"/>
<path d="M259.27 169.92C248.119 169.92 242.337 163.312 242.337 151.748V96.6143H253.694V152.574C253.694 157.737 255.862 159.595 259.476 159.595C263.09 159.595 265.258 157.737 265.258 152.574V96.6143H276.202V151.748C276.202 163.312 270.42 169.92 259.27 169.92Z" fill="white"/>
<path d="M283.258 168.887V96.6143H300.604C311.961 96.6143 317.536 102.912 317.536 114.476V151.026C317.536 162.589 311.961 168.887 300.604 168.887H283.258ZM294.616 158.563H300.397C304.011 158.563 306.179 156.704 306.179 151.542V113.96C306.179 108.797 304.011 106.939 300.397 106.939H294.616V158.563Z" fill="white"/>
<path d="M324.17 168.887V96.6143H335.527V168.887H324.17Z" fill="white"/>
<path d="M359.417 169.92C348.266 169.92 342.175 163.312 342.175 151.748V113.753C342.175 102.19 348.266 95.5819 359.417 95.5819C370.568 95.5819 376.659 102.19 376.659 113.753V151.748C376.659 163.312 370.568 169.92 359.417 169.92ZM359.417 159.595C363.031 159.595 365.302 157.633 365.302 152.471V113.031C365.302 107.868 363.031 105.907 359.417 105.907C355.803 105.907 353.532 107.868 353.532 113.031V152.471C353.532 157.633 355.803 159.595 359.417 159.595Z" fill="white"/>
</svg>
